<svg width="787" height="317" xmlns="http://www.w3.org/2000/svg" xmlns:xlink="http://www.w3.org/1999/xlink" xml:space="preserve" overflow="hidden"><g transform="translate(-1897 -747)"><path d="M2315.17 752.5C2321.43 752.5 2326.5 757.574 2326.5 763.833L2326.5 1015.17C2326.5 1021.43 2321.43 1026.5 2315.17 1026.5L2269.83 1026.5C2263.57 1026.5 2258.5 1021.43 2258.5 1015.17L2258.5 763.833C2258.5 757.574 2263.57 752.5 2269.83 752.5Z" stroke="#042433" stroke-width="6.875" stroke-miterlimit="8" fill="#A6A6A6" fill-rule="evenodd"/><path d="M1978.37 861.257C1978.1 858.669 1979.98 856.353 1982.57 856.084L2595.08 792.441C2597.67 792.172 2599.99 794.052 2600.26 796.64L2602.2 815.382C2602.47 817.97 2600.59 820.286 2598 820.555L1985.49 884.198C1982.9 884.467 1980.59 882.587 1980.32 879.999Z" stroke="#042433" stroke-width="6.875" stroke-miterlimit="8" fill="#F1FEA6" fill-rule="evenodd"/><path d="M1979.5 1009.33C1979.5 1008.32 1980.32 1007.5 1981.33 1007.5L2603.67 1007.5C2604.68 1007.5 2605.5 1008.32 2605.5 1009.33L2605.5 1016.67C2605.5 1017.68 2604.68 1018.5 2603.67 1018.5L1981.33 1018.5C1980.32 1018.5 1979.5 1017.68 1979.5 1016.67Z" stroke="#042433" stroke-width="6.875" stroke-miterlimit="8" fill="#819202" fill-rule="evenodd"/><path d="M1978.37 916.545C1978.1 913.957 1979.98 911.641 1982.57 911.372L2595.08 847.729C2597.67 847.46 2599.99 849.34 2600.26 851.928L2602.2 870.67C2602.47 873.258 2600.59 875.574 2598 875.843L1985.49 939.486C1982.9 939.755 1980.59 937.875 1980.32 935.287Z" stroke="#042433" stroke-width="6.875" stroke-miterlimit="8" fill="#F1FEA6" fill-rule="evenodd"/><path d="M1978.37 971.833C1978.1 969.245 1979.98 966.929 1982.57 966.66L2595.08 903.017C2597.67 902.748 2599.99 904.628 2600.26 907.216L2602.2 925.958C2602.47 928.546 2600.59 930.862 2598 931.131L1985.49 994.774C1982.9 995.043 1980.59 993.163 1980.32 990.575Z" stroke="#042433" stroke-width="6.875" stroke-miterlimit="8" fill="#F1FEA6" fill-rule="evenodd"/><path d="M1900.5 762.334C1900.5 755.798 1905.8 750.5 1912.33 750.5L2668.67 750.5C2675.2 750.5 2680.5 755.798 2680.5 762.334L2680.5 809.666C2680.5 816.202 2675.2 821.5 2668.67 821.5L1912.33 821.5C1905.8 821.5 1900.5 816.202 1900.5 809.666Z" stroke="#042433" stroke-width="6.875" stroke-miterlimit="8" fill="#F6C6AD" fill-rule="evenodd"/><path d="M2281.5 1051.33C2281.5 1050.32 2282.32 1049.5 2283.33 1049.5L2301.67 1049.5C2302.68 1049.5 2303.5 1050.32 2303.5 1051.33L2303.5 1058.67C2303.5 1059.68 2302.68 1060.5 2301.67 1060.5L2283.33 1060.5C2282.32 1060.5 2281.5 1059.68 2281.5 1058.67Z" stroke="#042433" stroke-width="6.875" stroke-miterlimit="8" fill="#156082" fill-rule="evenodd"/><path d="M1977.5 1018.83C1977.5 1016.99 1978.99 1015.5 1980.83 1015.5L2600.17 1015.5C2602.01 1015.5 2603.5 1016.99 2603.5 1018.83L2603.5 1032.17C2603.5 1034.01 2602.01 1035.5 2600.17 1035.5L1980.83 1035.5C1978.99 1035.5 1977.5 1034.01 1977.5 1032.17Z" stroke="#042433" stroke-width="6.875" stroke-miterlimit="8" fill-rule="evenodd"/><path d="M2208.5 1038.17C2208.5 1037.25 2209.25 1036.5 2210.17 1036.5L2374.83 1036.5C2375.75 1036.5 2376.5 1037.25 2376.5 1038.17L2376.5 1044.83C2376.5 1045.75 2375.75 1046.5 2374.83 1046.5L2210.17 1046.5C2209.25 1046.5 2208.5 1045.75 2208.5 1044.83Z" stroke="#042433" stroke-width="6.875" stroke-miterlimit="8" fill="#156082" fill-rule="evenodd"/></g></svg>